<svg width="248" height="61" viewBox="0 0 248 61" fill="none" xmlns="http://www.w3.org/2000/svg">
<path d="M80.6953 17.5625L84.1914 38.1289L94.7969 17.5625H102.414L97.4727 46H91.7305L93.1367 37.8945L95.9102 25.2383L85.0117 46H81.0859L77.2773 24.5156L75.4414 38.5195L74.1328 46H68.4102L73.3516 17.5625H80.6953ZM112.277 46.3906C110.428 46.3776 108.788 45.9284 107.355 45.043C105.936 44.1445 104.875 42.9206 104.172 41.3711C103.469 39.8086 103.195 38.0898 103.352 36.2148L103.41 35.4336C103.605 33.3763 104.204 31.4883 105.207 29.7695C106.21 28.0508 107.499 26.7292 109.074 25.8047C110.65 24.8672 112.395 24.4245 114.309 24.4766C117.03 24.5286 119.087 25.5312 120.48 27.4844C121.887 29.4245 122.421 31.8854 122.082 34.8672L121.77 37.2695H108.82C108.768 38.6367 109.1 39.7305 109.816 40.5508C110.533 41.3711 111.509 41.7943 112.746 41.8203C114.751 41.8724 116.509 41.0977 118.02 39.4961L120.539 42.6211C119.745 43.819 118.599 44.7565 117.102 45.4336C115.604 46.0977 113.996 46.4167 112.277 46.3906ZM114.035 29.0273C113.02 29.0013 112.115 29.3203 111.32 29.9844C110.539 30.6484 109.836 31.8008 109.211 33.4414H116.789L116.906 32.9336C116.984 32.4128 116.991 31.918 116.926 31.4492C116.796 30.694 116.477 30.1081 115.969 29.6914C115.461 29.2617 114.816 29.0404 114.035 29.0273ZM132.668 41.8594C133.684 41.8854 134.53 41.612 135.207 41.0391C135.884 40.4531 136.327 39.6784 136.535 38.7148L141.711 38.6953C141.62 40.1797 141.151 41.5143 140.305 42.6992C139.471 43.8841 138.352 44.8086 136.945 45.4727C135.552 46.1367 134.081 46.4492 132.531 46.4102C129.966 46.3711 127.935 45.4857 126.438 43.7539C124.94 42.0221 124.217 39.7174 124.27 36.8398L124.328 35.7656L124.348 35.5508C124.699 32.1133 125.858 29.3919 127.824 27.3867C129.79 25.3685 132.219 24.3984 135.109 24.4766C137.492 24.5286 139.38 25.3099 140.773 26.8203C142.18 28.3177 142.87 30.2969 142.844 32.7578H137.707C137.707 31.625 137.46 30.7331 136.965 30.082C136.47 29.431 135.728 29.0794 134.738 29.0273C132.108 28.9492 130.513 30.8698 129.953 34.7891C129.758 36.2083 129.686 37.4062 129.738 38.3828C129.868 40.6615 130.845 41.8203 132.668 41.8594ZM156.066 46C155.897 45.4661 155.826 44.8281 155.852 44.0859C154.263 45.6745 152.466 46.4427 150.461 46.3906C148.612 46.3646 147.076 45.7656 145.852 44.5938C144.641 43.4089 144.074 41.9505 144.152 40.2188C144.243 37.9141 145.207 36.1497 147.043 34.9258C148.892 33.6888 151.366 33.0703 154.465 33.0703L157.043 33.1094L157.316 31.8398C157.395 31.4102 157.414 31 157.375 30.6094C157.31 29.9974 157.076 29.5221 156.672 29.1836C156.281 28.832 155.76 28.6497 155.109 28.6367C154.25 28.6107 153.521 28.8255 152.922 29.2812C152.323 29.724 151.939 30.3685 151.77 31.2148L146.242 31.2344C146.333 29.2161 147.258 27.582 149.016 26.332C150.786 25.069 152.967 24.4505 155.559 24.4766C157.954 24.5286 159.829 25.2448 161.184 26.625C162.538 27.9922 163.104 29.7565 162.883 31.918L161.262 42.0352L161.164 43.2852C161.138 44.2096 161.249 44.9909 161.496 45.6289L161.477 46H156.066ZM151.828 42.1133C153.417 42.1654 154.803 41.4753 155.988 40.043L156.672 36.3906L154.758 36.3711C152.727 36.4232 151.262 37.0417 150.363 38.2266C150.038 38.6562 149.836 39.1836 149.758 39.8086C149.654 40.5117 149.797 41.0716 150.188 41.4883C150.591 41.8919 151.138 42.1003 151.828 42.1133ZM165.207 46L170.148 17.5625L179.016 17.582C182.31 17.5951 184.784 18.2656 186.438 19.5938C188.091 20.9219 188.84 22.7904 188.684 25.1992C188.501 28.0768 186.841 30.1797 183.703 31.5078C184.836 31.8984 185.715 32.6341 186.34 33.7148C186.965 34.7826 187.232 36.0456 187.141 37.5039C186.958 40.1862 185.904 42.276 183.977 43.7734C182.062 45.2578 179.445 46 176.125 46H165.207ZM173.098 33.6172L171.75 41.293L176.262 41.3125C177.668 41.3125 178.846 40.9674 179.797 40.2773C180.747 39.5742 181.314 38.6302 181.496 37.4453C181.678 36.2734 181.516 35.362 181.008 34.7109C180.513 34.0469 179.673 33.6888 178.488 33.6367L173.098 33.6172ZM173.801 29.4766L177.688 29.5156C179.133 29.4896 180.311 29.151 181.223 28.5C182.147 27.849 182.701 26.944 182.883 25.7852C183.208 23.4935 182.004 22.3411 179.27 22.3281L175.051 22.3086L173.801 29.4766ZM195.637 46H190.09L195.305 16H200.832L195.637 46ZM212.414 24.4766C214.276 24.5026 215.878 24.9844 217.219 25.9219C218.573 26.8464 219.562 28.1289 220.188 29.7695C220.826 31.3971 221.053 33.207 220.871 35.1992C220.572 38.5586 219.4 41.2799 217.355 43.3633C215.324 45.4336 212.811 46.4427 209.816 46.3906C207.98 46.3646 206.392 45.8958 205.051 44.9844C203.71 44.0599 202.72 42.7839 202.082 41.1562C201.444 39.5286 201.216 37.7318 201.398 35.7656C201.737 32.276 202.922 29.5026 204.953 27.4453C206.984 25.388 209.471 24.3984 212.414 24.4766ZM206.848 37.7773C206.874 39.0273 207.167 40.0169 207.727 40.7461C208.286 41.4622 209.074 41.8333 210.09 41.8594C211.783 41.9115 213.111 41.1367 214.074 39.5352C215.038 37.9206 215.487 35.8047 215.422 33.1875C215.37 31.9375 215.064 30.9414 214.504 30.1992C213.957 29.444 213.169 29.0534 212.141 29.0273C210.5 28.9753 209.185 29.75 208.195 31.3516C207.219 32.9401 206.77 35.082 206.848 37.7773ZM223.527 35.4141C223.918 32.1458 224.979 29.4961 226.711 27.4648C228.456 25.4206 230.65 24.418 233.293 24.457C235.546 24.5091 237.225 25.3229 238.332 26.8984L239.055 24.8477L244.113 24.8672L240.656 45.2773C240.279 48.0898 239.081 50.3164 237.062 51.957C235.044 53.5977 232.544 54.3919 229.562 54.3398C228.104 54.3138 226.711 53.9948 225.383 53.3828C224.055 52.7839 222.961 51.957 222.102 50.9023L224.836 47.543C226.06 49.0924 227.596 49.8932 229.445 49.9453C230.878 49.9974 232.102 49.6198 233.117 48.8125C234.133 48.0182 234.823 46.8919 235.188 45.4336L235.5 44.1641C233.964 45.7005 232.238 46.4427 230.324 46.3906C228.267 46.3646 226.633 45.6029 225.422 44.1055C224.211 42.5951 223.547 40.6354 223.43 38.2266C223.391 37.4323 223.423 36.4948 223.527 35.4141ZM228.938 37.7188C228.938 38.9427 229.191 39.9258 229.699 40.668C230.22 41.3971 230.969 41.7812 231.945 41.8203C233.443 41.8724 234.771 41.2344 235.93 39.9062L237.57 30.9609C237.01 29.737 235.975 29.099 234.465 29.0469C233.059 29.0078 231.867 29.5742 230.891 30.7461C229.914 31.918 229.302 33.474 229.055 35.4141C228.964 36.3646 228.924 37.1328 228.938 37.7188Z" fill="#415BEC"/>
<ellipse cx="30" cy="27" rx="27" ry="15" fill="#171616"/>
<ellipse cx="16" cy="28.5" rx="6" ry="7.5" fill="#415BEC"/>
<ellipse cx="44" cy="28.5" rx="6" ry="7.5" fill="#415BEC"/>
<path d="M59.5 28C59.5 43.1559 46.3255 55.5 30 55.5C13.6745 55.5 0.5 43.1559 0.5 28C0.5 12.8441 13.6745 0.5 30 0.5C46.3255 0.5 59.5 12.8441 59.5 28Z" stroke="black"/>
</svg>
